<mxfile host="app.diagrams.net" modified="2024-02-20T20:52:08.257Z" agent="Mozilla/5.0 (Windows NT 10.0; Win64; x64) AppleWebKit/537.36 (KHTML, like Gecko) Chrome/121.0.0.0 Safari/537.36" etag="9LAcueIazgSoZc0HsGZm" version="23.1.5" type="google">
  <diagram name="Страница — 1" id="noxT_dCax5dq4sUCwsHU">
    <mxGraphModel grid="1" page="1" gridSize="1" guides="1" tooltips="1" connect="1" arrows="1" fold="1" pageScale="1" pageWidth="827" pageHeight="1169" math="0" shadow="0">
      <root>
        <mxCell id="0" />
        <mxCell id="1" parent="0" />
        <mxCell id="zHRurrPYMuoqYGFFsYSC-29" value="" style="ellipse;whiteSpace=wrap;html=1;" vertex="1" parent="1">
          <mxGeometry x="516" y="-128" width="6" height="5" as="geometry" />
        </mxCell>
        <mxCell id="zHRurrPYMuoqYGFFsYSC-19" value="" style="ellipse;whiteSpace=wrap;html=1;" vertex="1" parent="1">
          <mxGeometry x="377" y="-200" width="6" height="5" as="geometry" />
        </mxCell>
        <mxCell id="zHRurrPYMuoqYGFFsYSC-6" value="" style="ellipse;whiteSpace=wrap;html=1;" vertex="1" parent="1">
          <mxGeometry x="464" y="-917" width="6" height="5" as="geometry" />
        </mxCell>
        <mxCell id="c8tYWAEgWTxlucnYDVgG-12" value="" style="ellipse;whiteSpace=wrap;html=1;" vertex="1" parent="1">
          <mxGeometry x="804" y="-233" width="6" height="5" as="geometry" />
        </mxCell>
        <mxCell id="c8tYWAEgWTxlucnYDVgG-3" value="" style="ellipse;whiteSpace=wrap;html=1;" vertex="1" parent="1">
          <mxGeometry x="547" y="-995.5" width="6" height="5" as="geometry" />
        </mxCell>
        <mxCell id="fvwbThdCBs6CcgYm-7Tw-24" value="" style="ellipse;whiteSpace=wrap;html=1;" vertex="1" parent="1">
          <mxGeometry x="355" y="-1066" width="6" height="5" as="geometry" />
        </mxCell>
        <mxCell id="Mj_aIpF7gp9IFx7AHNKB-3" value="" style="endArrow=none;html=1;rounded=0;" edge="1" parent="1">
          <mxGeometry width="50" height="50" relative="1" as="geometry">
            <mxPoint x="-300" y="560" as="sourcePoint" />
            <mxPoint x="-300" y="-468" as="targetPoint" />
          </mxGeometry>
        </mxCell>
        <mxCell id="c8tYWAEgWTxlucnYDVgG-13" value="" style="edgeStyle=isometricEdgeStyle;endArrow=none;html=1;rounded=0;strokeColor=default;align=center;verticalAlign=middle;fontFamily=Helvetica;fontSize=11;fontColor=default;labelBackgroundColor=default;curved=0;exitX=0.928;exitY=0.255;exitDx=0;exitDy=0;exitPerimeter=0;" edge="1" parent="1">
          <mxGeometry width="50" height="100" relative="1" as="geometry">
            <mxPoint x="808.9979999999997" y="-231.7249999999999" as="sourcePoint" />
            <mxPoint x="838" y="-282" as="targetPoint" />
            <Array as="points" />
          </mxGeometry>
        </mxCell>
        <mxCell id="c8tYWAEgWTxlucnYDVgG-5" value="И довольный покупатель" style="text;html=1;align=left;verticalAlign=middle;resizable=0;points=[];autosize=1;strokeColor=none;fillColor=none;fontFamily=Helvetica;fontSize=11;fontColor=default;labelBackgroundColor=none;" vertex="1" parent="1">
          <mxGeometry x="628" y="-947" width="147" height="26" as="geometry" />
        </mxCell>
        <mxCell id="c8tYWAEgWTxlucnYDVgG-6" value="2" style="whiteSpace=wrap;html=1;aspect=fixed;" vertex="1" parent="1">
          <mxGeometry x="609" y="-944" width="17" height="17" as="geometry" />
        </mxCell>
        <mxCell id="c8tYWAEgWTxlucnYDVgG-10" value="1" style="whiteSpace=wrap;html=1;aspect=fixed;" vertex="1" parent="1">
          <mxGeometry x="-242" y="-290" width="17" height="17" as="geometry" />
        </mxCell>
        <mxCell id="zHRurrPYMuoqYGFFsYSC-3" value="" style="endArrow=none;html=1;rounded=0;" edge="1" parent="1">
          <mxGeometry width="50" height="50" relative="1" as="geometry">
            <mxPoint x="-167" y="-388.5" as="sourcePoint" />
            <mxPoint x="-150" y="-404.5" as="targetPoint" />
          </mxGeometry>
        </mxCell>
        <mxCell id="Mj_aIpF7gp9IFx7AHNKB-4" value="" style="endArrow=none;html=1;rounded=0;" edge="1" parent="1">
          <mxGeometry width="50" height="50" relative="1" as="geometry">
            <mxPoint x="-300" y="480" as="sourcePoint" />
            <mxPoint x="1100" y="480" as="targetPoint" />
          </mxGeometry>
        </mxCell>
        <mxCell id="zHRurrPYMuoqYGFFsYSC-5" value="" style="endArrow=none;html=1;rounded=0;" edge="1" parent="1">
          <mxGeometry width="50" height="50" relative="1" as="geometry">
            <mxPoint x="-141" y="-388.5" as="sourcePoint" />
            <mxPoint x="-124" y="-404.5" as="targetPoint" />
          </mxGeometry>
        </mxCell>
        <mxCell id="8iJI3GCnp7n2s2R7GDSL-14" style="edgeStyle=orthogonalEdgeStyle;rounded=1;orthogonalLoop=1;jettySize=auto;html=1;strokeColor=default;align=center;verticalAlign=middle;fontFamily=Helvetica;fontSize=11;fontColor=default;labelBackgroundColor=default;endArrow=classic;entryX=0;entryY=0.25;entryDx=0;entryDy=0;" edge="1" parent="1" source="Mj_aIpF7gp9IFx7AHNKB-10" target="Mj_aIpF7gp9IFx7AHNKB-18">
          <mxGeometry relative="1" as="geometry" />
        </mxCell>
        <mxCell id="Mj_aIpF7gp9IFx7AHNKB-10" value="Предложение ассортимента товаров" style="rounded=0;whiteSpace=wrap;html=1;" vertex="1" parent="1">
          <mxGeometry x="-40" y="-240" width="160" height="80" as="geometry" />
        </mxCell>
        <mxCell id="Mj_aIpF7gp9IFx7AHNKB-11" value="" style="endArrow=classic;html=1;rounded=1;entryX=0.5;entryY=1;entryDx=0;entryDy=0;curved=0;" edge="1" parent="1" target="Mj_aIpF7gp9IFx7AHNKB-10">
          <mxGeometry width="50" height="50" relative="1" as="geometry">
            <mxPoint x="40" y="408" as="sourcePoint" />
            <mxPoint x="210" y="-100" as="targetPoint" />
          </mxGeometry>
        </mxCell>
        <mxCell id="8iJI3GCnp7n2s2R7GDSL-33" style="edgeStyle=orthogonalEdgeStyle;rounded=1;orthogonalLoop=1;jettySize=auto;html=1;strokeColor=default;align=center;verticalAlign=middle;fontFamily=Helvetica;fontSize=11;fontColor=default;labelBackgroundColor=default;endArrow=classic;" edge="1" parent="1" target="8iJI3GCnp7n2s2R7GDSL-28">
          <mxGeometry relative="1" as="geometry">
            <Array as="points">
              <mxPoint x="40" y="330" />
            </Array>
            <mxPoint x="40" y="409" as="sourcePoint" />
          </mxGeometry>
        </mxCell>
        <mxCell id="Mj_aIpF7gp9IFx7AHNKB-12" value="Интернет-магазин" style="text;html=1;align=center;verticalAlign=middle;resizable=0;points=[];autosize=1;strokeColor=none;fillColor=none;" vertex="1" parent="1">
          <mxGeometry x="-82" y="385" width="120" height="30" as="geometry" />
        </mxCell>
        <mxCell id="Mj_aIpF7gp9IFx7AHNKB-15" value="" style="endArrow=classic;html=1;rounded=1;curved=0;entryX=0;entryY=0.5;entryDx=0;entryDy=0;" edge="1" parent="1" target="Mj_aIpF7gp9IFx7AHNKB-27">
          <mxGeometry width="50" height="50" relative="1" as="geometry">
            <mxPoint x="-120" y="-20" as="sourcePoint" />
            <mxPoint x="300" y="-20" as="targetPoint" />
            <Array as="points" />
          </mxGeometry>
        </mxCell>
        <mxCell id="Mj_aIpF7gp9IFx7AHNKB-16" value="Покупатель" style="text;html=1;align=center;verticalAlign=middle;resizable=0;points=[];autosize=1;strokeColor=none;fillColor=none;" vertex="1" parent="1">
          <mxGeometry x="-222" y="-63" width="90" height="30" as="geometry" />
        </mxCell>
        <mxCell id="8iJI3GCnp7n2s2R7GDSL-16" style="edgeStyle=orthogonalEdgeStyle;rounded=1;orthogonalLoop=1;jettySize=auto;html=1;strokeColor=default;align=center;verticalAlign=middle;fontFamily=Helvetica;fontSize=11;fontColor=default;labelBackgroundColor=default;endArrow=classic;" edge="1" parent="1" source="Mj_aIpF7gp9IFx7AHNKB-18" target="Mj_aIpF7gp9IFx7AHNKB-27">
          <mxGeometry relative="1" as="geometry">
            <Array as="points">
              <mxPoint x="380" y="-105" />
            </Array>
          </mxGeometry>
        </mxCell>
        <mxCell id="8iJI3GCnp7n2s2R7GDSL-17" style="edgeStyle=orthogonalEdgeStyle;rounded=1;orthogonalLoop=1;jettySize=auto;html=1;strokeColor=default;align=center;verticalAlign=middle;fontFamily=Helvetica;fontSize=11;fontColor=default;labelBackgroundColor=default;endArrow=classic;" edge="1" parent="1" source="Mj_aIpF7gp9IFx7AHNKB-18" target="Mj_aIpF7gp9IFx7AHNKB-10">
          <mxGeometry relative="1" as="geometry">
            <Array as="points">
              <mxPoint x="380" y="-105" />
              <mxPoint x="380" y="-270" />
              <mxPoint x="100" y="-270" />
            </Array>
          </mxGeometry>
        </mxCell>
        <mxCell id="Mj_aIpF7gp9IFx7AHNKB-18" value="Проверка наличия товара и стоимости" style="rounded=0;whiteSpace=wrap;html=1;" vertex="1" parent="1">
          <mxGeometry x="168" y="-145" width="140" height="80" as="geometry" />
        </mxCell>
        <mxCell id="Mj_aIpF7gp9IFx7AHNKB-19" value="Выбранный&lt;br&gt;&amp;nbsp;товар" style="text;html=1;align=center;verticalAlign=middle;resizable=0;points=[];autosize=1;strokeColor=none;fillColor=none;" vertex="1" parent="1">
          <mxGeometry x="142" y="-200" width="84" height="42" as="geometry" />
        </mxCell>
        <mxCell id="Mj_aIpF7gp9IFx7AHNKB-20" value="" style="endArrow=classic;html=1;rounded=1;entryX=0.5;entryY=1;entryDx=0;entryDy=0;curved=0;" edge="1" parent="1" target="Mj_aIpF7gp9IFx7AHNKB-18">
          <mxGeometry width="50" height="50" relative="1" as="geometry">
            <mxPoint x="83" y="190" as="sourcePoint" />
            <mxPoint x="360" as="targetPoint" />
            <Array as="points">
              <mxPoint x="238" y="189" />
            </Array>
          </mxGeometry>
        </mxCell>
        <mxCell id="8iJI3GCnp7n2s2R7GDSL-15" style="edgeStyle=orthogonalEdgeStyle;rounded=1;orthogonalLoop=1;jettySize=auto;html=1;strokeColor=default;align=center;verticalAlign=middle;fontFamily=Helvetica;fontSize=11;fontColor=default;labelBackgroundColor=default;endArrow=classic;entryX=0.25;entryY=1;entryDx=0;entryDy=0;" edge="1" parent="1" target="Mj_aIpF7gp9IFx7AHNKB-18">
          <mxGeometry relative="1" as="geometry">
            <mxPoint x="-117" y="-104" as="sourcePoint" />
            <Array as="points">
              <mxPoint x="-24" y="-104" />
              <mxPoint x="-24" y="-38" />
              <mxPoint x="203" y="-38" />
            </Array>
          </mxGeometry>
        </mxCell>
        <mxCell id="av1EQ-j5Zix_95B_48Zq-7" style="edgeStyle=orthogonalEdgeStyle;rounded=1;orthogonalLoop=1;jettySize=auto;html=1;curved=0;" edge="1" parent="1" target="8iJI3GCnp7n2s2R7GDSL-28">
          <mxGeometry relative="1" as="geometry">
            <mxPoint x="-117" y="-104" as="sourcePoint" />
            <Array as="points">
              <mxPoint x="-24" y="-104" />
              <mxPoint x="-24" y="308" />
            </Array>
            <mxPoint x="773" y="310" as="targetPoint" />
          </mxGeometry>
        </mxCell>
        <mxCell id="Mj_aIpF7gp9IFx7AHNKB-23" value="База-данных товаров" style="text;html=1;align=center;verticalAlign=middle;whiteSpace=wrap;rounded=0;" vertex="1" parent="1">
          <mxGeometry x="-227" y="-145" width="100" height="30" as="geometry" />
        </mxCell>
        <mxCell id="8iJI3GCnp7n2s2R7GDSL-40" style="edgeStyle=orthogonalEdgeStyle;rounded=1;orthogonalLoop=1;jettySize=auto;html=1;strokeColor=default;align=center;verticalAlign=middle;fontFamily=Helvetica;fontSize=11;fontColor=default;labelBackgroundColor=default;endArrow=classic;" edge="1" parent="1" source="Mj_aIpF7gp9IFx7AHNKB-27" target="P7el1MZPP4tyDkTmbuYE-2">
          <mxGeometry relative="1" as="geometry" />
        </mxCell>
        <mxCell id="Mj_aIpF7gp9IFx7AHNKB-27" value="Оформление&lt;br&gt;&amp;nbsp;заказа" style="rounded=0;whiteSpace=wrap;html=1;" vertex="1" parent="1">
          <mxGeometry x="328" y="-60" width="140" height="80" as="geometry" />
        </mxCell>
        <mxCell id="cQTExUBmhsDBCZvtiduw-1" value="Наличие и &lt;br&gt;стоимость&lt;br&gt;товара" style="text;html=1;align=center;verticalAlign=middle;resizable=0;points=[];autosize=1;strokeColor=none;fillColor=none;" vertex="1" parent="1">
          <mxGeometry x="301" y="-168" width="80" height="60" as="geometry" />
        </mxCell>
        <mxCell id="8iJI3GCnp7n2s2R7GDSL-3" style="edgeStyle=orthogonalEdgeStyle;rounded=1;orthogonalLoop=1;jettySize=auto;html=1;strokeColor=default;align=center;verticalAlign=middle;fontFamily=Helvetica;fontSize=11;fontColor=default;labelBackgroundColor=default;endArrow=classic;entryX=0.692;entryY=-0.003;entryDx=0;entryDy=0;entryPerimeter=0;" edge="1" parent="1">
          <mxGeometry relative="1" as="geometry">
            <mxPoint x="39.22000000000003" y="-240.00000000000023" as="targetPoint" />
            <Array as="points">
              <mxPoint x="39.5" y="-284.76" />
              <mxPoint x="39.5" y="-284.76" />
            </Array>
            <mxPoint x="39.5" y="-317.76" as="sourcePoint" />
          </mxGeometry>
        </mxCell>
        <mxCell id="zf2FOue_H98U0er-zmsk-2" value="&lt;span style=&quot;font-size: 12px;&quot;&gt;Желание покупателя&lt;br&gt;и его бюджет&lt;br&gt;&lt;/span&gt;" style="text;html=1;align=center;verticalAlign=middle;resizable=0;points=[];autosize=1;strokeColor=none;fillColor=none;fontFamily=Helvetica;fontSize=11;fontColor=default;labelBackgroundColor=none;" vertex="1" parent="1">
          <mxGeometry x="-112.5" y="-353.76" width="136" height="43" as="geometry" />
        </mxCell>
        <mxCell id="zf2FOue_H98U0er-zmsk-4" value="" style="endArrow=classic;html=1;rounded=1;hachureGap=4;strokeColor=default;align=center;verticalAlign=middle;fontFamily=Helvetica;fontSize=11;fontColor=default;labelBackgroundColor=default;curved=0;" edge="1" parent="1" target="Mj_aIpF7gp9IFx7AHNKB-27">
          <mxGeometry width="50" height="50" relative="1" as="geometry">
            <mxPoint x="40" y="409" as="sourcePoint" />
            <mxPoint x="390" y="20" as="targetPoint" />
            <Array as="points">
              <mxPoint x="40" y="190" />
              <mxPoint x="230" y="190" />
              <mxPoint x="398" y="190" />
            </Array>
          </mxGeometry>
        </mxCell>
        <mxCell id="zf2FOue_H98U0er-zmsk-6" value="" style="endArrow=classic;html=1;rounded=1;hachureGap=4;strokeColor=default;align=center;verticalAlign=middle;fontFamily=Helvetica;fontSize=11;fontColor=default;labelBackgroundColor=default;entryX=0;entryY=0.5;entryDx=0;entryDy=0;curved=0;" edge="1" parent="1" target="Mj_aIpF7gp9IFx7AHNKB-10">
          <mxGeometry width="50" height="50" relative="1" as="geometry">
            <mxPoint x="-120" y="-20" as="sourcePoint" />
            <mxPoint x="-60" y="-30" as="targetPoint" />
            <Array as="points">
              <mxPoint x="-80" y="-20" />
              <mxPoint x="-80" y="-98" />
              <mxPoint x="-80" y="-112" />
              <mxPoint x="-80" y="-200" />
            </Array>
          </mxGeometry>
        </mxCell>
        <mxCell id="8iJI3GCnp7n2s2R7GDSL-20" style="edgeStyle=orthogonalEdgeStyle;rounded=1;orthogonalLoop=1;jettySize=auto;html=1;strokeColor=default;align=center;verticalAlign=middle;fontFamily=Helvetica;fontSize=11;fontColor=default;labelBackgroundColor=default;endArrow=classic;" edge="1" parent="1" source="P7el1MZPP4tyDkTmbuYE-2" target="KCNyOtEW-vA50fqK8N70-2">
          <mxGeometry relative="1" as="geometry" />
        </mxCell>
        <mxCell id="P7el1MZPP4tyDkTmbuYE-2" value="Оплата" style="rounded=0;whiteSpace=wrap;html=1;" vertex="1" parent="1">
          <mxGeometry x="510" y="50" width="140" height="80" as="geometry" />
        </mxCell>
        <mxCell id="P7el1MZPP4tyDkTmbuYE-9" value="" style="endArrow=none;html=1;rounded=1;strokeColor=default;align=center;verticalAlign=middle;fontFamily=Helvetica;fontSize=11;fontColor=default;labelBackgroundColor=default;edgeStyle=orthogonalEdgeStyle;exitX=1;exitY=0.25;exitDx=0;exitDy=0;" edge="1" parent="1" source="Mj_aIpF7gp9IFx7AHNKB-27">
          <mxGeometry width="50" height="50" relative="1" as="geometry">
            <mxPoint x="468" y="-19" as="sourcePoint" />
            <mxPoint x="82" y="-242" as="targetPoint" />
            <Array as="points">
              <mxPoint x="519" y="-40" />
              <mxPoint x="519" y="-289" />
              <mxPoint x="82" y="-289" />
            </Array>
          </mxGeometry>
        </mxCell>
        <mxCell id="51GYCzHCempJoWLmRnna-2" value="" style="endArrow=classic;html=1;rounded=1;hachureGap=4;curved=0;entryX=0;entryY=0.5;entryDx=0;entryDy=0;" edge="1" parent="1" target="P7el1MZPP4tyDkTmbuYE-2">
          <mxGeometry width="50" height="50" relative="1" as="geometry">
            <mxPoint x="-120" y="-20" as="sourcePoint" />
            <mxPoint x="530" y="90" as="targetPoint" />
            <Array as="points">
              <mxPoint x="-80" y="-20" />
              <mxPoint x="-80" y="50" />
              <mxPoint x="-80" y="90" />
            </Array>
          </mxGeometry>
        </mxCell>
        <mxCell id="51GYCzHCempJoWLmRnna-3" value="" style="endArrow=classic;html=1;rounded=0;hachureGap=4;entryX=0;entryY=0.75;entryDx=0;entryDy=0;exitX=0.947;exitY=0.523;exitDx=0;exitDy=0;exitPerimeter=0;" edge="1" parent="1" source="fvwbThdCBs6CcgYm-7Tw-10" target="P7el1MZPP4tyDkTmbuYE-2">
          <mxGeometry width="50" height="50" relative="1" as="geometry">
            <mxPoint x="-114" y="110" as="sourcePoint" />
            <mxPoint x="525" y="110" as="targetPoint" />
          </mxGeometry>
        </mxCell>
        <mxCell id="51GYCzHCempJoWLmRnna-4" value="Деньги" style="text;html=1;align=center;verticalAlign=middle;resizable=0;points=[];autosize=1;strokeColor=none;fillColor=none;" vertex="1" parent="1">
          <mxGeometry x="-200" y="72" width="60" height="30" as="geometry" />
        </mxCell>
        <mxCell id="51GYCzHCempJoWLmRnna-8" style="edgeStyle=orthogonalEdgeStyle;rounded=0;hachureGap=4;orthogonalLoop=1;jettySize=auto;html=1;entryX=0.5;entryY=1;entryDx=0;entryDy=0;" edge="1" parent="1" target="P7el1MZPP4tyDkTmbuYE-2">
          <mxGeometry relative="1" as="geometry">
            <mxPoint x="580" y="413" as="sourcePoint" />
          </mxGeometry>
        </mxCell>
        <mxCell id="8iJI3GCnp7n2s2R7GDSL-23" style="edgeStyle=orthogonalEdgeStyle;rounded=1;orthogonalLoop=1;jettySize=auto;html=1;strokeColor=default;align=center;verticalAlign=middle;fontFamily=Helvetica;fontSize=11;fontColor=default;labelBackgroundColor=default;endArrow=classic;" edge="1" parent="1" target="KCNyOtEW-vA50fqK8N70-2">
          <mxGeometry relative="1" as="geometry">
            <Array as="points">
              <mxPoint x="580" y="260" />
              <mxPoint x="740" y="260" />
            </Array>
            <mxPoint x="580" y="410" as="sourcePoint" />
          </mxGeometry>
        </mxCell>
        <mxCell id="51GYCzHCempJoWLmRnna-6" value="Система &lt;br&gt;оплаты" style="text;html=1;align=center;verticalAlign=middle;resizable=0;points=[];autosize=1;strokeColor=none;fillColor=none;" vertex="1" parent="1">
          <mxGeometry x="495" y="386" width="67" height="42" as="geometry" />
        </mxCell>
        <mxCell id="8iJI3GCnp7n2s2R7GDSL-24" style="edgeStyle=orthogonalEdgeStyle;rounded=1;orthogonalLoop=1;jettySize=auto;html=1;strokeColor=default;align=center;verticalAlign=middle;fontFamily=Helvetica;fontSize=11;fontColor=default;labelBackgroundColor=default;endArrow=classic;entryX=0.75;entryY=0;entryDx=0;entryDy=0;" edge="1" parent="1" source="KCNyOtEW-vA50fqK8N70-2" target="Mj_aIpF7gp9IFx7AHNKB-27">
          <mxGeometry relative="1" as="geometry">
            <Array as="points">
              <mxPoint x="850" y="190" />
              <mxPoint x="850" y="-106" />
              <mxPoint x="433" y="-106" />
            </Array>
          </mxGeometry>
        </mxCell>
        <mxCell id="8iJI3GCnp7n2s2R7GDSL-30" style="edgeStyle=orthogonalEdgeStyle;rounded=1;orthogonalLoop=1;jettySize=auto;html=1;strokeColor=default;align=center;verticalAlign=middle;fontFamily=Helvetica;fontSize=11;fontColor=default;labelBackgroundColor=default;endArrow=classic;exitX=1;exitY=0.5;exitDx=0;exitDy=0;" edge="1" parent="1" source="KCNyOtEW-vA50fqK8N70-2" target="8iJI3GCnp7n2s2R7GDSL-28">
          <mxGeometry relative="1" as="geometry" />
        </mxCell>
        <mxCell id="KCNyOtEW-vA50fqK8N70-2" value="Подтверждение оплаты&lt;br&gt;заказа" style="rounded=0;whiteSpace=wrap;html=1;hachureGap=4;" vertex="1" parent="1">
          <mxGeometry x="670" y="150" width="140" height="80" as="geometry" />
        </mxCell>
        <mxCell id="KCNyOtEW-vA50fqK8N70-3" value="" style="endArrow=classic;html=1;rounded=0;hachureGap=4;" edge="1" parent="1" target="KCNyOtEW-vA50fqK8N70-2">
          <mxGeometry width="50" height="50" relative="1" as="geometry">
            <mxPoint x="200" y="190" as="sourcePoint" />
            <mxPoint x="670" y="190" as="targetPoint" />
            <Array as="points">
              <mxPoint x="320" y="190" />
              <mxPoint x="500" y="190" />
            </Array>
          </mxGeometry>
        </mxCell>
        <mxCell id="8iJI3GCnp7n2s2R7GDSL-25" value="Статус &lt;br&gt;оплаты" style="text;html=1;align=center;verticalAlign=middle;resizable=0;points=[];autosize=1;strokeColor=none;fillColor=none;" vertex="1" parent="1">
          <mxGeometry x="850" y="172" width="60" height="42" as="geometry" />
        </mxCell>
        <mxCell id="8iJI3GCnp7n2s2R7GDSL-34" style="edgeStyle=orthogonalEdgeStyle;rounded=1;orthogonalLoop=1;jettySize=auto;html=1;strokeColor=default;align=center;verticalAlign=middle;fontFamily=Helvetica;fontSize=11;fontColor=default;labelBackgroundColor=default;endArrow=classic;" edge="1" parent="1" source="8iJI3GCnp7n2s2R7GDSL-28">
          <mxGeometry relative="1" as="geometry">
            <mxPoint x="1040" y="311" as="targetPoint" />
          </mxGeometry>
        </mxCell>
        <mxCell id="KCNyOtEW-vA50fqK8N70-8" style="edgeStyle=orthogonalEdgeStyle;rounded=1;hachureGap=4;orthogonalLoop=1;jettySize=auto;html=1;curved=0;" edge="1" parent="1" source="8iJI3GCnp7n2s2R7GDSL-28" target="Mj_aIpF7gp9IFx7AHNKB-18">
          <mxGeometry relative="1" as="geometry">
            <Array as="points">
              <mxPoint x="941" y="291" />
              <mxPoint x="941" y="-230" />
              <mxPoint x="255" y="-230" />
            </Array>
            <mxPoint x="237" y="-152" as="targetPoint" />
          </mxGeometry>
        </mxCell>
        <mxCell id="8iJI3GCnp7n2s2R7GDSL-28" value="Отправка заказа" style="rounded=0;whiteSpace=wrap;html=1;fontFamily=Helvetica;fontSize=12;fontColor=default;labelBackgroundColor=default;" vertex="1" parent="1">
          <mxGeometry x="780" y="271" width="140" height="80" as="geometry" />
        </mxCell>
        <mxCell id="8iJI3GCnp7n2s2R7GDSL-31" style="edgeStyle=orthogonalEdgeStyle;rounded=1;orthogonalLoop=1;jettySize=auto;html=1;strokeColor=default;align=center;verticalAlign=middle;fontFamily=Helvetica;fontSize=11;fontColor=default;labelBackgroundColor=default;endArrow=classic;" edge="1" parent="1" target="8iJI3GCnp7n2s2R7GDSL-28">
          <mxGeometry relative="1" as="geometry">
            <mxPoint x="849" y="418" as="sourcePoint" />
          </mxGeometry>
        </mxCell>
        <mxCell id="KCNyOtEW-vA50fqK8N70-4" value="Курьерская &lt;br&gt;служба" style="text;html=1;align=center;verticalAlign=middle;resizable=0;points=[];autosize=1;strokeColor=none;fillColor=none;" vertex="1" parent="1">
          <mxGeometry x="759" y="386" width="83" height="42" as="geometry" />
        </mxCell>
        <mxCell id="KCNyOtEW-vA50fqK8N70-5" value="Статус заказа" style="text;html=1;align=center;verticalAlign=middle;resizable=0;points=[];autosize=1;strokeColor=none;fillColor=none;" vertex="1" parent="1">
          <mxGeometry x="533" y="-52" width="97" height="27" as="geometry" />
        </mxCell>
        <mxCell id="8iJI3GCnp7n2s2R7GDSL-42" value="&lt;font style=&quot;font-size: 12px;&quot;&gt;Квитанция оплаты&lt;/font&gt;" style="text;html=1;align=center;verticalAlign=middle;resizable=0;points=[];autosize=1;strokeColor=none;fillColor=none;fontFamily=Helvetica;fontSize=11;fontColor=default;labelBackgroundColor=default;" vertex="1" parent="1">
          <mxGeometry x="653" y="53" width="130" height="30" as="geometry" />
        </mxCell>
        <mxCell id="8iJI3GCnp7n2s2R7GDSL-43" value="" style="endArrow=none;html=1;rounded=0;" edge="1" parent="1">
          <mxGeometry width="50" height="50" relative="1" as="geometry">
            <mxPoint x="1100" y="560" as="sourcePoint" />
            <mxPoint x="1100" y="-468" as="targetPoint" />
          </mxGeometry>
        </mxCell>
        <mxCell id="8iJI3GCnp7n2s2R7GDSL-44" value="" style="endArrow=none;html=1;rounded=0;" edge="1" parent="1">
          <mxGeometry width="50" height="50" relative="1" as="geometry">
            <mxPoint x="-300" y="-380" as="sourcePoint" />
            <mxPoint x="1100" y="-380" as="targetPoint" />
          </mxGeometry>
        </mxCell>
        <mxCell id="8iJI3GCnp7n2s2R7GDSL-45" value="" style="endArrow=none;html=1;rounded=0;" edge="1" parent="1">
          <mxGeometry width="50" height="50" relative="1" as="geometry">
            <mxPoint x="-300" y="560" as="sourcePoint" />
            <mxPoint x="1100" y="560" as="targetPoint" />
          </mxGeometry>
        </mxCell>
        <mxCell id="KCNyOtEW-vA50fqK8N70-7" value="Проданный товар" style="text;html=1;align=center;verticalAlign=middle;resizable=0;points=[];autosize=1;strokeColor=none;fillColor=none;" vertex="1" parent="1">
          <mxGeometry x="950" y="271" width="118" height="27" as="geometry" />
        </mxCell>
        <mxCell id="KCNyOtEW-vA50fqK8N70-10" value="Обновленная база данных" style="text;html=1;align=center;verticalAlign=middle;resizable=0;points=[];autosize=1;strokeColor=none;fillColor=none;" vertex="1" parent="1">
          <mxGeometry x="578" y="-261" width="168" height="27" as="geometry" />
        </mxCell>
        <mxCell id="KCNyOtEW-vA50fqK8N70-11" value="1" style="text;html=1;align=center;verticalAlign=middle;resizable=0;points=[];autosize=1;strokeColor=none;fillColor=none;" vertex="1" parent="1">
          <mxGeometry x="98" y="-184" width="26" height="27" as="geometry" />
        </mxCell>
        <mxCell id="KCNyOtEW-vA50fqK8N70-12" value="2" style="text;html=1;align=center;verticalAlign=middle;resizable=0;points=[];autosize=1;strokeColor=none;fillColor=none;" vertex="1" parent="1">
          <mxGeometry x="285" y="-89" width="26" height="27" as="geometry" />
        </mxCell>
        <mxCell id="KCNyOtEW-vA50fqK8N70-13" value="3" style="text;html=1;align=center;verticalAlign=middle;resizable=0;points=[];autosize=1;strokeColor=none;fillColor=none;" vertex="1" parent="1">
          <mxGeometry x="444" y="-4" width="26" height="27" as="geometry" />
        </mxCell>
        <mxCell id="KCNyOtEW-vA50fqK8N70-15" value="4" style="text;html=1;align=center;verticalAlign=middle;resizable=0;points=[];autosize=1;strokeColor=none;fillColor=none;" vertex="1" parent="1">
          <mxGeometry x="627" y="106" width="26" height="27" as="geometry" />
        </mxCell>
        <mxCell id="KCNyOtEW-vA50fqK8N70-16" value="5" style="text;html=1;align=center;verticalAlign=middle;resizable=0;points=[];autosize=1;strokeColor=none;fillColor=none;" vertex="1" parent="1">
          <mxGeometry x="786.5" y="207" width="26" height="27" as="geometry" />
        </mxCell>
        <mxCell id="KCNyOtEW-vA50fqK8N70-17" value="6" style="text;html=1;align=center;verticalAlign=middle;resizable=0;points=[];autosize=1;strokeColor=none;fillColor=none;" vertex="1" parent="1">
          <mxGeometry x="898" y="327" width="26" height="27" as="geometry" />
        </mxCell>
        <mxCell id="b7Tdxp0T41XU30kG_oj3-1" value="" style="endArrow=none;html=1;rounded=0;" edge="1" parent="1">
          <mxGeometry width="50" height="50" relative="1" as="geometry">
            <mxPoint x="-300" y="-468" as="sourcePoint" />
            <mxPoint x="1100" y="-468" as="targetPoint" />
          </mxGeometry>
        </mxCell>
        <mxCell id="b7Tdxp0T41XU30kG_oj3-4" value="АВТОРЫ: Коротаев А. Д., Ившин М.С." style="text;html=1;align=center;verticalAlign=middle;resizable=0;points=[];autosize=1;strokeColor=none;fillColor=none;" vertex="1" parent="1">
          <mxGeometry x="-290" y="-461" width="230" height="27" as="geometry" />
        </mxCell>
        <mxCell id="b7Tdxp0T41XU30kG_oj3-5" value="ПРОЕКТ: Лабораторная работа" style="text;html=1;align=center;verticalAlign=middle;resizable=0;points=[];autosize=1;strokeColor=none;fillColor=none;" vertex="1" parent="1">
          <mxGeometry x="-290" y="-436" width="195" height="27" as="geometry" />
        </mxCell>
        <mxCell id="b7Tdxp0T41XU30kG_oj3-7" value="ЗАМЕЧАНИЯ:" style="text;html=1;align=center;verticalAlign=middle;resizable=0;points=[];autosize=1;strokeColor=none;fillColor=none;" vertex="1" parent="1">
          <mxGeometry x="-290" y="-411" width="98" height="27" as="geometry" />
        </mxCell>
        <mxCell id="b7Tdxp0T41XU30kG_oj3-8" value="1&lt;span style=&quot;white-space: pre;&quot;&gt;&#x9;&lt;/span&gt;2&lt;span style=&quot;white-space: pre;&quot;&gt;&#x9;&lt;/span&gt;3&lt;span style=&quot;white-space: pre;&quot;&gt;&#x9;&lt;/span&gt;4&lt;span style=&quot;white-space: pre;&quot;&gt;&#x9;&lt;/span&gt;5&lt;span style=&quot;white-space: pre;&quot;&gt;&#x9;&lt;/span&gt;6&lt;span style=&quot;white-space: pre;&quot;&gt;&#x9;&lt;/span&gt;7&lt;span style=&quot;white-space: pre;&quot;&gt;&#x9;&lt;/span&gt;8&lt;span style=&quot;white-space: pre;&quot;&gt;&#x9;&lt;/span&gt;9&lt;span style=&quot;white-space: pre;&quot;&gt;&#x9;&lt;/span&gt;10" style="text;html=1;align=center;verticalAlign=middle;resizable=0;points=[];autosize=1;strokeColor=none;fillColor=none;" vertex="1" parent="1">
          <mxGeometry x="-172" y="-410" width="272" height="27" as="geometry" />
        </mxCell>
        <mxCell id="b7Tdxp0T41XU30kG_oj3-9" value="ДАТА: 19/02/2024" style="text;html=1;align=center;verticalAlign=middle;resizable=0;points=[];autosize=1;strokeColor=none;fillColor=none;" vertex="1" parent="1">
          <mxGeometry x="979" y="-460" width="116" height="27" as="geometry" />
        </mxCell>
        <mxCell id="b7Tdxp0T41XU30kG_oj3-10" value="&lt;font style=&quot;font-size: 18px;&quot;&gt;НАЗВАНИЕ: Продажа товара в Интернет-магазине&lt;br&gt;&lt;/font&gt;" style="text;html=1;align=center;verticalAlign=middle;whiteSpace=wrap;rounded=0;" vertex="1" parent="1">
          <mxGeometry x="138" y="495" width="542" height="56" as="geometry" />
        </mxCell>
        <mxCell id="av1EQ-j5Zix_95B_48Zq-18" style="edgeStyle=orthogonalEdgeStyle;rounded=0;orthogonalLoop=1;jettySize=auto;html=1;" edge="1" parent="1" source="av1EQ-j5Zix_95B_48Zq-1" target="av1EQ-j5Zix_95B_48Zq-17">
          <mxGeometry relative="1" as="geometry" />
        </mxCell>
        <mxCell id="av1EQ-j5Zix_95B_48Zq-1" value="Продажа товара в Интернет-магазине" style="rounded=0;whiteSpace=wrap;html=1;" vertex="1" parent="1">
          <mxGeometry x="195" y="-1031" width="320" height="76" as="geometry" />
        </mxCell>
        <mxCell id="av1EQ-j5Zix_95B_48Zq-28" style="edgeStyle=orthogonalEdgeStyle;rounded=0;orthogonalLoop=1;jettySize=auto;html=1;" edge="1" parent="1">
          <mxGeometry relative="1" as="geometry">
            <mxPoint x="194" y="-1012" as="targetPoint" />
            <mxPoint x="91" y="-1012" as="sourcePoint" />
          </mxGeometry>
        </mxCell>
        <mxCell id="av1EQ-j5Zix_95B_48Zq-2" value="Покупатель" style="text;html=1;align=center;verticalAlign=middle;whiteSpace=wrap;rounded=0;" vertex="1" parent="1">
          <mxGeometry x="15" y="-1026.5" width="76" height="30" as="geometry" />
        </mxCell>
        <mxCell id="av1EQ-j5Zix_95B_48Zq-3" value="Деньги" style="text;html=1;align=center;verticalAlign=middle;resizable=0;points=[];autosize=1;strokeColor=none;fillColor=none;" vertex="1" parent="1">
          <mxGeometry x="32" y="-986.5" width="58" height="27" as="geometry" />
        </mxCell>
        <mxCell id="fvwbThdCBs6CcgYm-7Tw-1" value="O1" style="text;html=1;align=center;verticalAlign=middle;resizable=0;points=[];autosize=1;strokeColor=none;fillColor=none;" vertex="1" parent="1">
          <mxGeometry x="1036" y="296" width="35" height="27" as="geometry" />
        </mxCell>
        <mxCell id="fvwbThdCBs6CcgYm-7Tw-2" value="M3" style="text;html=1;align=center;verticalAlign=middle;resizable=0;points=[];autosize=1;strokeColor=none;fillColor=none;" vertex="1" parent="1">
          <mxGeometry x="831" y="418" width="36" height="27" as="geometry" />
        </mxCell>
        <mxCell id="fvwbThdCBs6CcgYm-7Tw-3" value="M2" style="text;html=1;align=center;verticalAlign=middle;resizable=0;points=[];autosize=1;strokeColor=none;fillColor=none;" vertex="1" parent="1">
          <mxGeometry x="562" y="413" width="36" height="27" as="geometry" />
        </mxCell>
        <mxCell id="fvwbThdCBs6CcgYm-7Tw-4" value="M1" style="text;html=1;align=center;verticalAlign=middle;resizable=0;points=[];autosize=1;strokeColor=none;fillColor=none;" vertex="1" parent="1">
          <mxGeometry x="22" y="408" width="36" height="27" as="geometry" />
        </mxCell>
        <mxCell id="fvwbThdCBs6CcgYm-7Tw-5" value="C1" style="text;html=1;align=center;verticalAlign=middle;resizable=0;points=[];autosize=1;strokeColor=none;fillColor=none;" vertex="1" parent="1">
          <mxGeometry x="23.5" y="-345.76" width="34" height="27" as="geometry" />
        </mxCell>
        <mxCell id="av1EQ-j5Zix_95B_48Zq-8" value="Интернет-магазин" style="text;html=1;align=center;verticalAlign=middle;resizable=0;points=[];autosize=1;strokeColor=none;fillColor=none;" vertex="1" parent="1">
          <mxGeometry x="195" y="-865" width="120" height="30" as="geometry" />
        </mxCell>
        <mxCell id="av1EQ-j5Zix_95B_48Zq-12" value="База данных товаров" style="text;html=1;align=center;verticalAlign=middle;whiteSpace=wrap;rounded=0;" vertex="1" parent="1">
          <mxGeometry x="315.5" y="-864" width="91" height="30" as="geometry" />
        </mxCell>
        <mxCell id="fvwbThdCBs6CcgYm-7Tw-8" value="I2" style="text;html=1;align=center;verticalAlign=middle;resizable=0;points=[];autosize=1;strokeColor=none;fillColor=none;" vertex="1" parent="1">
          <mxGeometry x="-147" y="-117" width="29" height="27" as="geometry" />
        </mxCell>
        <mxCell id="fvwbThdCBs6CcgYm-7Tw-9" value="I1" style="text;html=1;align=center;verticalAlign=middle;resizable=0;points=[];autosize=1;strokeColor=none;fillColor=none;" vertex="1" parent="1">
          <mxGeometry x="-147" y="-35" width="29" height="27" as="geometry" />
        </mxCell>
        <mxCell id="fvwbThdCBs6CcgYm-7Tw-10" value="I3" style="text;html=1;align=center;verticalAlign=middle;resizable=0;points=[];autosize=1;strokeColor=none;fillColor=none;" vertex="1" parent="1">
          <mxGeometry x="-147" y="96" width="29" height="27" as="geometry" />
        </mxCell>
        <mxCell id="av1EQ-j5Zix_95B_48Zq-17" value="Проданный товар" style="text;html=1;align=center;verticalAlign=middle;resizable=0;points=[];autosize=1;strokeColor=none;fillColor=none;" vertex="1" parent="1">
          <mxGeometry x="600" y="-1006" width="118" height="27" as="geometry" />
        </mxCell>
        <mxCell id="fvwbThdCBs6CcgYm-7Tw-12" value="Курьерская&lt;br&gt;служба" style="text;html=1;align=center;verticalAlign=middle;resizable=0;points=[];autosize=1;strokeColor=none;fillColor=none;" vertex="1" parent="1">
          <mxGeometry x="425" y="-871" width="83" height="42" as="geometry" />
        </mxCell>
        <mxCell id="av1EQ-j5Zix_95B_48Zq-24" style="edgeStyle=orthogonalEdgeStyle;rounded=1;orthogonalLoop=1;jettySize=auto;html=1;strokeColor=default;align=center;verticalAlign=middle;fontFamily=Helvetica;fontSize=11;fontColor=default;labelBackgroundColor=default;endArrow=classic;entryX=0.692;entryY=-0.003;entryDx=0;entryDy=0;entryPerimeter=0;" edge="1" parent="1">
          <mxGeometry relative="1" as="geometry">
            <mxPoint x="358" y="-1030" as="targetPoint" />
            <Array as="points">
              <mxPoint x="358" y="-1075" />
              <mxPoint x="358" y="-1075" />
            </Array>
            <mxPoint x="358" y="-1117" as="sourcePoint" />
          </mxGeometry>
        </mxCell>
        <mxCell id="av1EQ-j5Zix_95B_48Zq-25" value="&lt;span style=&quot;font-size: 12px;&quot;&gt;Желания покупателя&lt;br&gt;и его бюджет&lt;br&gt;&lt;/span&gt;" style="text;html=1;align=center;verticalAlign=middle;resizable=0;points=[];autosize=1;strokeColor=none;fillColor=none;fontFamily=Helvetica;fontSize=11;fontColor=default;labelBackgroundColor=none;" vertex="1" parent="1">
          <mxGeometry x="293" y="-1165" width="136" height="42" as="geometry" />
        </mxCell>
        <mxCell id="av1EQ-j5Zix_95B_48Zq-44" style="edgeStyle=orthogonalEdgeStyle;rounded=0;orthogonalLoop=1;jettySize=auto;html=1;entryX=-0.005;entryY=0.756;entryDx=0;entryDy=0;entryPerimeter=0;" edge="1" parent="1" source="av1EQ-j5Zix_95B_48Zq-3" target="av1EQ-j5Zix_95B_48Zq-1">
          <mxGeometry relative="1" as="geometry" />
        </mxCell>
        <mxCell id="fvwbThdCBs6CcgYm-7Tw-15" style="edgeStyle=orthogonalEdgeStyle;rounded=1;orthogonalLoop=1;jettySize=auto;html=1;strokeColor=default;align=center;verticalAlign=middle;fontFamily=Helvetica;fontSize=11;fontColor=default;labelBackgroundColor=default;endArrow=classic;entryX=0.189;entryY=1.001;entryDx=0;entryDy=0;entryPerimeter=0;" edge="1" parent="1" source="av1EQ-j5Zix_95B_48Zq-8" target="av1EQ-j5Zix_95B_48Zq-1">
          <mxGeometry relative="1" as="geometry">
            <mxPoint x="253" y="-943" as="targetPoint" />
          </mxGeometry>
        </mxCell>
        <mxCell id="av1EQ-j5Zix_95B_48Zq-45" style="edgeStyle=orthogonalEdgeStyle;rounded=0;orthogonalLoop=1;jettySize=auto;html=1;entryX=0.849;entryY=0.996;entryDx=0;entryDy=0;entryPerimeter=0;" edge="1" parent="1" source="fvwbThdCBs6CcgYm-7Tw-12" target="av1EQ-j5Zix_95B_48Zq-1">
          <mxGeometry relative="1" as="geometry" />
        </mxCell>
        <mxCell id="fvwbThdCBs6CcgYm-7Tw-16" style="edgeStyle=orthogonalEdgeStyle;rounded=1;orthogonalLoop=1;jettySize=auto;html=1;entryX=0.516;entryY=0.996;entryDx=0;entryDy=0;entryPerimeter=0;strokeColor=default;align=center;verticalAlign=middle;fontFamily=Helvetica;fontSize=11;fontColor=default;labelBackgroundColor=default;endArrow=classic;" edge="1" parent="1" source="av1EQ-j5Zix_95B_48Zq-12" target="av1EQ-j5Zix_95B_48Zq-1">
          <mxGeometry relative="1" as="geometry" />
        </mxCell>
        <mxCell id="av1EQ-j5Zix_95B_48Zq-46" value="0" style="text;html=1;align=center;verticalAlign=middle;resizable=0;points=[];autosize=1;strokeColor=none;fillColor=none;" vertex="1" parent="1">
          <mxGeometry x="492" y="-979" width="26" height="27" as="geometry" />
        </mxCell>
        <mxCell id="av1EQ-j5Zix_95B_48Zq-47" value="" style="endArrow=none;html=1;rounded=0;" edge="1" parent="1">
          <mxGeometry width="50" height="50" relative="1" as="geometry">
            <mxPoint x="-128.05" y="-507" as="sourcePoint" />
            <mxPoint x="-128" y="-1332" as="targetPoint" />
          </mxGeometry>
        </mxCell>
        <mxCell id="av1EQ-j5Zix_95B_48Zq-48" value="" style="endArrow=none;html=1;rounded=0;" edge="1" parent="1">
          <mxGeometry width="50" height="50" relative="1" as="geometry">
            <mxPoint x="-128" y="-588" as="sourcePoint" />
            <mxPoint x="846" y="-589" as="targetPoint" />
          </mxGeometry>
        </mxCell>
        <mxCell id="av1EQ-j5Zix_95B_48Zq-49" value="" style="endArrow=none;html=1;rounded=0;" edge="1" parent="1">
          <mxGeometry width="50" height="50" relative="1" as="geometry">
            <mxPoint x="846" y="-508" as="sourcePoint" />
            <mxPoint x="846" y="-1332" as="targetPoint" />
          </mxGeometry>
        </mxCell>
        <mxCell id="av1EQ-j5Zix_95B_48Zq-50" value="" style="endArrow=none;html=1;rounded=0;" edge="1" parent="1">
          <mxGeometry width="50" height="50" relative="1" as="geometry">
            <mxPoint x="-128" y="-1244" as="sourcePoint" />
            <mxPoint x="846" y="-1244" as="targetPoint" />
          </mxGeometry>
        </mxCell>
        <mxCell id="av1EQ-j5Zix_95B_48Zq-51" value="" style="endArrow=none;html=1;rounded=0;" edge="1" parent="1">
          <mxGeometry width="50" height="50" relative="1" as="geometry">
            <mxPoint x="-128" y="-507" as="sourcePoint" />
            <mxPoint x="846" y="-508" as="targetPoint" />
          </mxGeometry>
        </mxCell>
        <mxCell id="av1EQ-j5Zix_95B_48Zq-52" value="" style="endArrow=none;html=1;rounded=0;" edge="1" parent="1">
          <mxGeometry width="50" height="50" relative="1" as="geometry">
            <mxPoint x="-128" y="-1332" as="sourcePoint" />
            <mxPoint x="846" y="-1332" as="targetPoint" />
          </mxGeometry>
        </mxCell>
        <mxCell id="av1EQ-j5Zix_95B_48Zq-53" value="АВТОРЫ: Коротаев А. Д., Ившин М.С." style="text;html=1;align=center;verticalAlign=middle;resizable=0;points=[];autosize=1;strokeColor=none;fillColor=none;" vertex="1" parent="1">
          <mxGeometry x="-118" y="-1325" width="230" height="27" as="geometry" />
        </mxCell>
        <mxCell id="av1EQ-j5Zix_95B_48Zq-54" value="ПРОЕКТ: Лабораторная работа" style="text;html=1;align=center;verticalAlign=middle;resizable=0;points=[];autosize=1;strokeColor=none;fillColor=none;" vertex="1" parent="1">
          <mxGeometry x="-118" y="-1300" width="195" height="27" as="geometry" />
        </mxCell>
        <mxCell id="av1EQ-j5Zix_95B_48Zq-55" value="ЗАМЕЧАНИЯ:" style="text;html=1;align=center;verticalAlign=middle;resizable=0;points=[];autosize=1;strokeColor=none;fillColor=none;" vertex="1" parent="1">
          <mxGeometry x="-118" y="-1275" width="98" height="27" as="geometry" />
        </mxCell>
        <mxCell id="av1EQ-j5Zix_95B_48Zq-56" value="1&lt;span style=&quot;white-space: pre;&quot;&gt;&#x9;&lt;/span&gt;2&lt;span style=&quot;white-space: pre;&quot;&gt;&#x9;&lt;/span&gt;3&lt;span style=&quot;white-space: pre;&quot;&gt;&#x9;&lt;/span&gt;4&lt;span style=&quot;white-space: pre;&quot;&gt;&#x9;&lt;/span&gt;5&lt;span style=&quot;white-space: pre;&quot;&gt;&#x9;&lt;/span&gt;6&lt;span style=&quot;white-space: pre;&quot;&gt;&#x9;&lt;/span&gt;7&lt;span style=&quot;white-space: pre;&quot;&gt;&#x9;&lt;/span&gt;8&lt;span style=&quot;white-space: pre;&quot;&gt;&#x9;&lt;/span&gt;9&lt;span style=&quot;white-space: pre;&quot;&gt;&#x9;&lt;/span&gt;10" style="text;html=1;align=center;verticalAlign=middle;resizable=0;points=[];autosize=1;strokeColor=none;fillColor=none;" vertex="1" parent="1">
          <mxGeometry y="-1274" width="272" height="27" as="geometry" />
        </mxCell>
        <mxCell id="av1EQ-j5Zix_95B_48Zq-57" value="ДАТА: 19/02/2024" style="text;html=1;align=center;verticalAlign=middle;resizable=0;points=[];autosize=1;strokeColor=none;fillColor=none;" vertex="1" parent="1">
          <mxGeometry x="725" y="-1323" width="116" height="27" as="geometry" />
        </mxCell>
        <mxCell id="av1EQ-j5Zix_95B_48Zq-58" value="&lt;font style=&quot;font-size: 18px;&quot;&gt;НАЗВАНИЕ: Продажа товара в Интернет-магазине&lt;br&gt;&lt;/font&gt;" style="text;html=1;align=center;verticalAlign=middle;whiteSpace=wrap;rounded=0;" vertex="1" parent="1">
          <mxGeometry x="138" y="-573" width="542" height="56" as="geometry" />
        </mxCell>
        <mxCell id="fvwbThdCBs6CcgYm-7Tw-17" value="&amp;nbsp;Интернет-магазин" style="text;html=1;align=center;verticalAlign=middle;resizable=0;points=[];autosize=1;strokeColor=none;fillColor=none;fontFamily=Helvetica;fontSize=12;fontColor=default;labelBackgroundColor=none;rounded=0;glass=0;" vertex="1" parent="1">
          <mxGeometry x="202.5" y="-698" width="123" height="27" as="geometry" />
        </mxCell>
        <mxCell id="fvwbThdCBs6CcgYm-7Tw-18" value="Описать процесс оформления товаров в Интернет-магазине, понять, &lt;br&gt;какие факторы при этом учитываются и определить способы их &lt;br&gt;взаимодействия между собой." style="text;html=1;align=left;verticalAlign=middle;resizable=0;points=[];autosize=1;fontFamily=Helvetica;fontSize=11;labelBackgroundColor=none;rounded=0;glass=0;" vertex="1" parent="1">
          <mxGeometry x="171.5" y="-754" width="374" height="53" as="geometry" />
        </mxCell>
        <mxCell id="av1EQ-j5Zix_95B_48Zq-59" value="Цель:&amp;nbsp;&amp;nbsp;" style="text;html=1;align=center;verticalAlign=middle;resizable=0;points=[];autosize=1;strokeColor=none;fillColor=none;" vertex="1" parent="1">
          <mxGeometry x="116.5" y="-754" width="57" height="27" as="geometry" />
        </mxCell>
        <mxCell id="av1EQ-j5Zix_95B_48Zq-60" value="Точка зрения:" style="text;html=1;align=center;verticalAlign=middle;resizable=0;points=[];autosize=1;strokeColor=none;fillColor=none;" vertex="1" parent="1">
          <mxGeometry x="118.5" y="-699" width="96" height="27" as="geometry" />
        </mxCell>
        <mxCell id="av1EQ-j5Zix_95B_48Zq-61" value="" style="endArrow=none;html=1;rounded=0;" edge="1" parent="1">
          <mxGeometry width="50" height="50" relative="1" as="geometry">
            <mxPoint x="5" y="-1251" as="sourcePoint" />
            <mxPoint x="22" y="-1267" as="targetPoint" />
          </mxGeometry>
        </mxCell>
        <mxCell id="av1EQ-j5Zix_95B_48Zq-62" value="" style="endArrow=none;html=1;rounded=0;" edge="1" parent="1">
          <mxGeometry width="50" height="50" relative="1" as="geometry">
            <mxPoint x="31.5" y="-1252.5" as="sourcePoint" />
            <mxPoint x="48.5" y="-1268.5" as="targetPoint" />
          </mxGeometry>
        </mxCell>
        <mxCell id="av1EQ-j5Zix_95B_48Zq-63" value="" style="endArrow=none;html=1;rounded=0;" edge="1" parent="1">
          <mxGeometry width="50" height="50" relative="1" as="geometry">
            <mxPoint x="58" y="-1252" as="sourcePoint" />
            <mxPoint x="75" y="-1268" as="targetPoint" />
          </mxGeometry>
        </mxCell>
        <mxCell id="fvwbThdCBs6CcgYm-7Tw-22" value="" style="edgeStyle=isometricEdgeStyle;endArrow=none;html=1;rounded=0;strokeColor=default;align=center;verticalAlign=middle;fontFamily=Helvetica;fontSize=11;fontColor=default;labelBackgroundColor=default;curved=0;exitX=0.928;exitY=0.255;exitDx=0;exitDy=0;exitPerimeter=0;" edge="1" parent="1" source="fvwbThdCBs6CcgYm-7Tw-24">
          <mxGeometry width="50" height="100" relative="1" as="geometry">
            <mxPoint x="359" y="-1064" as="sourcePoint" />
            <mxPoint x="445" y="-1130" as="targetPoint" />
            <Array as="points">
              <mxPoint x="399" y="-1098" />
            </Array>
          </mxGeometry>
        </mxCell>
        <mxCell id="fvwbThdCBs6CcgYm-7Tw-27" value="Учитывается в фильтрах на &lt;br&gt;сайте Интернет-магазина" style="text;html=1;align=left;verticalAlign=middle;resizable=0;points=[];autosize=1;strokeColor=none;fillColor=none;fontFamily=Helvetica;fontSize=11;fontColor=default;labelBackgroundColor=none;" vertex="1" parent="1">
          <mxGeometry x="465" y="-1158" width="161" height="39" as="geometry" />
        </mxCell>
        <mxCell id="c8tYWAEgWTxlucnYDVgG-2" value="1" style="whiteSpace=wrap;html=1;aspect=fixed;" vertex="1" parent="1">
          <mxGeometry x="445" y="-1147" width="17" height="17" as="geometry" />
        </mxCell>
        <mxCell id="fvwbThdCBs6CcgYm-7Tw-32" value="С каждой продажей необходимо&lt;br&gt;&amp;nbsp;корректировать количество товара" style="text;html=1;align=left;verticalAlign=middle;resizable=0;points=[];autosize=1;strokeColor=none;fillColor=none;fontFamily=Helvetica;fontSize=11;fontColor=default;labelBackgroundColor=none;" vertex="1" parent="1">
          <mxGeometry x="860" y="-308" width="201" height="39" as="geometry" />
        </mxCell>
        <mxCell id="fvwbThdCBs6CcgYm-7Tw-33" value="Ориентируясь на свои&lt;br&gt;предпочтения и бюджет,&lt;br&gt;покупатель выбирает&lt;br&gt;нужный товар" style="text;html=1;align=left;verticalAlign=middle;resizable=0;points=[];autosize=1;strokeColor=none;fillColor=none;fontFamily=Helvetica;fontSize=11;fontColor=default;labelBackgroundColor=none;" vertex="1" parent="1">
          <mxGeometry x="-222" y="-307" width="143" height="66" as="geometry" />
        </mxCell>
        <mxCell id="c8tYWAEgWTxlucnYDVgG-15" value="2" style="whiteSpace=wrap;html=1;aspect=fixed;" vertex="1" parent="1">
          <mxGeometry x="838" y="-299" width="17" height="17" as="geometry" />
        </mxCell>
        <mxCell id="c8tYWAEgWTxlucnYDVgG-17" value="" style="edgeStyle=isometricEdgeStyle;endArrow=none;html=1;elbow=vertical;rounded=0;entryX=0.93;entryY=0.772;entryDx=0;entryDy=0;entryPerimeter=0;" edge="1" parent="1" target="c8tYWAEgWTxlucnYDVgG-3">
          <mxGeometry width="50" height="100" relative="1" as="geometry">
            <mxPoint x="609" y="-938" as="sourcePoint" />
            <mxPoint x="551" y="-993" as="targetPoint" />
          </mxGeometry>
        </mxCell>
        <mxCell id="zHRurrPYMuoqYGFFsYSC-7" value="Выбираем самую дешевую" style="text;html=1;align=center;verticalAlign=middle;resizable=0;points=[];autosize=1;strokeColor=none;fillColor=none;fontFamily=Helvetica;fontSize=11;fontColor=default;labelBackgroundColor=none;" vertex="1" parent="1">
          <mxGeometry x="539" y="-868.5" width="159" height="26" as="geometry" />
        </mxCell>
        <mxCell id="zHRurrPYMuoqYGFFsYSC-8" value="3" style="whiteSpace=wrap;html=1;aspect=fixed;" vertex="1" parent="1">
          <mxGeometry x="526" y="-865.5" width="17" height="17" as="geometry" />
        </mxCell>
        <mxCell id="zHRurrPYMuoqYGFFsYSC-9" value="" style="edgeStyle=isometricEdgeStyle;endArrow=none;html=1;elbow=vertical;rounded=0;entryX=0.93;entryY=0.772;entryDx=0;entryDy=0;entryPerimeter=0;" edge="1" parent="1" target="zHRurrPYMuoqYGFFsYSC-6">
          <mxGeometry width="50" height="100" relative="1" as="geometry">
            <mxPoint x="526" y="-859.5" as="sourcePoint" />
            <mxPoint x="468" y="-914.5" as="targetPoint" />
          </mxGeometry>
        </mxCell>
        <mxCell id="zHRurrPYMuoqYGFFsYSC-2" value="" style="edgeStyle=isometricEdgeStyle;endArrow=none;html=1;elbow=vertical;rounded=0;hachureGap=4;" edge="1" parent="1">
          <mxGeometry width="50" height="100" relative="1" as="geometry">
            <mxPoint x="-25" y="-209" as="sourcePoint" />
            <mxPoint x="-85" y="-259" as="targetPoint" />
          </mxGeometry>
        </mxCell>
        <mxCell id="zHRurrPYMuoqYGFFsYSC-20" value="" style="edgeStyle=isometricEdgeStyle;endArrow=none;html=1;rounded=0;strokeColor=default;align=center;verticalAlign=middle;fontFamily=Helvetica;fontSize=11;fontColor=default;labelBackgroundColor=default;curved=0;exitX=1;exitY=0;exitDx=0;exitDy=0;" edge="1" parent="1" source="zHRurrPYMuoqYGFFsYSC-19">
          <mxGeometry width="50" height="100" relative="1" as="geometry">
            <mxPoint x="379" y="-270.76" as="sourcePoint" />
            <mxPoint x="493" y="-307" as="targetPoint" />
            <Array as="points" />
          </mxGeometry>
        </mxCell>
        <mxCell id="zHRurrPYMuoqYGFFsYSC-21" value="3" style="whiteSpace=wrap;html=1;aspect=fixed;" vertex="1" parent="1">
          <mxGeometry x="493" y="-324" width="17" height="17" as="geometry" />
        </mxCell>
        <mxCell id="zHRurrPYMuoqYGFFsYSC-22" value="Товара нет в наличии, &lt;br&gt;учитываем это при выборе" style="text;html=1;align=left;verticalAlign=middle;resizable=0;points=[];autosize=1;strokeColor=none;fillColor=none;fontFamily=Helvetica;fontSize=11;fontColor=default;labelBackgroundColor=none;" vertex="1" parent="1">
          <mxGeometry x="512" y="-335" width="157" height="39" as="geometry" />
        </mxCell>
        <mxCell id="zHRurrPYMuoqYGFFsYSC-27" value="" style="endArrow=none;html=1;rounded=0;" edge="1" parent="1">
          <mxGeometry width="50" height="50" relative="1" as="geometry">
            <mxPoint x="-115" y="-388" as="sourcePoint" />
            <mxPoint x="-98" y="-404" as="targetPoint" />
          </mxGeometry>
        </mxCell>
        <mxCell id="zHRurrPYMuoqYGFFsYSC-28" value="" style="endArrow=classic;html=1;rounded=0;hachureGap=4;entryX=0.762;entryY=0.011;entryDx=0;entryDy=0;entryPerimeter=0;" edge="1" parent="1" target="Mj_aIpF7gp9IFx7AHNKB-10">
          <mxGeometry width="50" height="50" relative="1" as="geometry">
            <mxPoint x="82" y="-256" as="sourcePoint" />
            <mxPoint x="129" y="-252" as="targetPoint" />
          </mxGeometry>
        </mxCell>
        <mxCell id="zHRurrPYMuoqYGFFsYSC-30" value="" style="edgeStyle=isometricEdgeStyle;endArrow=none;html=1;rounded=0;strokeColor=default;align=center;verticalAlign=middle;fontFamily=Helvetica;fontSize=11;fontColor=default;labelBackgroundColor=default;curved=0;exitX=1;exitY=0;exitDx=0;exitDy=0;" edge="1" parent="1" source="zHRurrPYMuoqYGFFsYSC-29">
          <mxGeometry width="50" height="100" relative="1" as="geometry">
            <mxPoint x="518" y="-198.76" as="sourcePoint" />
            <mxPoint x="577" y="-178" as="targetPoint" />
            <Array as="points">
              <mxPoint x="546" y="-155" />
            </Array>
          </mxGeometry>
        </mxCell>
        <mxCell id="zHRurrPYMuoqYGFFsYSC-31" value="4" style="whiteSpace=wrap;html=1;aspect=fixed;" vertex="1" parent="1">
          <mxGeometry x="578" y="-194" width="17" height="17" as="geometry" />
        </mxCell>
        <mxCell id="zHRurrPYMuoqYGFFsYSC-32" value="Повышаем рейтинг товара&lt;br&gt;для составления списка рекомендаций" style="text;html=1;align=left;verticalAlign=middle;resizable=0;points=[];autosize=1;strokeColor=none;fillColor=none;fontFamily=Helvetica;fontSize=11;fontColor=default;labelBackgroundColor=none;" vertex="1" parent="1">
          <mxGeometry x="601" y="-205" width="220" height="39" as="geometry" />
        </mxCell>
        <mxCell id="zHRurrPYMuoqYGFFsYSC-33" value="" style="endArrow=none;html=1;rounded=0;" edge="1" parent="1">
          <mxGeometry width="50" height="50" relative="1" as="geometry">
            <mxPoint x="-87" y="-388.5" as="sourcePoint" />
            <mxPoint x="-70" y="-404.5" as="targetPoint" />
          </mxGeometry>
        </mxCell>
      </root>
    </mxGraphModel>
  </diagram>
</mxfile>
